<svg width="12" height="12" viewBox="0 0 12 12" fill="none" xmlns="http://www.w3.org/2000/svg">
<g id="3671803_closed_lock_icon 1" clip-path="url(#clip0_496_916)">
<path id="Vector" d="M2.45573 4.51203V3.42403C2.45573 2.55837 2.79962 1.72816 3.41173 1.11604C4.02385 0.503919 4.85406 0.160034 5.71973 0.160034C6.5854 0.160034 7.41561 0.503919 8.02773 1.11604C8.63984 1.72816 8.98373 2.55837 8.98373 3.42403V4.51203H9.52773C9.81628 4.51203 10.093 4.62666 10.2971 4.8307C10.5011 5.03474 10.6157 5.31148 10.6157 5.60003V9.95203C10.6157 10.2406 10.5011 10.5173 10.2971 10.7214C10.093 10.9254 9.81628 11.04 9.52773 11.04H1.91173C1.62317 11.04 1.34644 10.9254 1.1424 10.7214C0.938359 10.5173 0.82373 10.2406 0.82373 9.95203V5.60003C0.82373 5.00163 1.31333 4.51203 1.91173 4.51203H2.45573ZM5.17573 8.17315V9.40803H6.26373V8.17315C6.47115 8.0534 6.63326 7.86855 6.72491 7.64728C6.81657 7.426 6.83265 7.18067 6.77066 6.94932C6.70867 6.71798 6.57207 6.51355 6.38206 6.36775C6.19205 6.22195 5.95924 6.14292 5.71973 6.14292C5.48022 6.14292 5.24741 6.22195 5.0574 6.36775C4.86738 6.51355 4.73079 6.71798 4.6688 6.94932C4.60681 7.18067 4.62289 7.426 4.71455 7.64728C4.8062 7.86855 4.96831 8.0534 5.17573 8.17315ZM4.08773 3.42403V4.51203H7.35173V3.42403C7.35173 2.9912 7.17979 2.5761 6.87373 2.27004C6.56767 1.96398 6.15256 1.79203 5.71973 1.79203C5.2869 1.79203 4.87179 1.96398 4.56573 2.27004C4.25967 2.5761 4.08773 2.9912 4.08773 3.42403Z" fill="white"/>
</g>
<defs>
<clipPath id="clip0_496_916">
<rect width="10.88" height="10.88" fill="white" transform="translate(0.279785 0.160034)"/>
</clipPath>
</defs>
</svg>
