<svg width="138" height="21" viewBox="0 0 138 21" fill="none" xmlns="http://www.w3.org/2000/svg">
<path d="M20.336 2.864C22.32 2.864 23.864 3.456 24.968 4.64C26.088 5.808 26.648 7.504 26.648 9.728V20H21.896V9.872C21.896 8.864 21.632 8.104 21.104 7.592C20.576 7.064 19.872 6.8 18.992 6.8C18.048 6.8 17.296 7.08 16.736 7.64C16.192 8.184 15.92 9.008 15.92 10.112V20H11.168V9.872C11.168 8.864 10.92 8.104 10.424 7.592C9.944 7.064 9.28 6.8 8.432 6.8C7.52 6.8 6.792 7.08 6.248 7.64C5.704 8.184 5.432 9.008 5.432 10.112V20H0.68V3.2H5.288V5.072C5.8 4.352 6.456 3.808 7.256 3.44C8.072 3.056 9.016 2.864 10.088 2.864C11.192 2.864 12.152 3.064 12.968 3.464C13.8 3.864 14.472 4.448 14.984 5.216C15.56 4.448 16.312 3.864 17.24 3.464C18.168 3.064 19.2 2.864 20.336 2.864ZM29.6671 6.992H34.2271V20H29.6671V6.992ZM31.9471 5.552C31.1151 5.552 30.4431 5.32 29.9311 4.856C29.4191 4.392 29.1631 3.816 29.1631 3.128C29.1631 2.44 29.4191 1.864 29.9311 1.4C30.4431 0.935999 31.1151 0.704 31.9471 0.704C32.7791 0.704 33.4511 0.927999 33.9631 1.376C34.4751 1.808 34.7311 2.368 34.7311 3.056C34.7311 3.776 34.4751 4.376 33.9631 4.856C33.4511 5.32 32.7791 5.552 31.9471 5.552ZM42.2546 20.216C40.6546 20.216 39.4066 19.808 38.5106 18.992C37.6306 18.16 37.1906 16.976 37.1906 15.44V2.192H41.7506V15.2C41.7506 15.68 41.8706 16.048 42.1106 16.304C42.3666 16.56 42.7186 16.688 43.1666 16.688C43.5346 16.688 43.8786 16.608 44.1986 16.448L44.3906 19.88C43.7026 20.104 42.9906 20.216 42.2546 20.216ZM51.9305 15.44L50.5865 16.808V20H46.0265V2.192H50.5865V11.528L55.2425 6.992H60.6425L55.2425 12.56L61.0985 20H55.5785L51.9305 15.44ZM75.6457 6.992V20H71.3017V18.704C70.4537 19.712 69.1737 20.216 67.4617 20.216C66.2777 20.216 65.1977 19.944 64.2217 19.4C63.2617 18.84 62.4937 18.048 61.9177 17.024C61.3577 16 61.0777 14.816 61.0777 13.472C61.0777 12.128 61.3577 10.952 61.9177 9.944C62.4937 8.92 63.2617 8.136 64.2217 7.592C65.1977 7.048 66.2777 6.776 67.4617 6.776C68.9977 6.776 70.2057 7.224 71.0857 8.12V6.992H75.6457ZM68.4217 16.592C69.2217 16.592 69.8777 16.32 70.3897 15.776C70.9017 15.216 71.1577 14.448 71.1577 13.472C71.1577 12.512 70.9017 11.76 70.3897 11.216C69.8777 10.672 69.2217 10.4 68.4217 10.4C67.6217 10.4 66.9657 10.672 66.4537 11.216C65.9417 11.76 65.6857 12.512 65.6857 13.472C65.6857 14.448 65.9417 15.216 66.4537 15.776C66.9657 16.32 67.6217 16.592 68.4217 16.592Z" fill="white"/>
<path d="M104.575 3.2V13.016C104.575 15.384 103.895 17.2 102.535 18.464C101.191 19.712 99.2869 20.336 96.8229 20.336C95.7189 20.336 94.7189 20.184 93.8229 19.88C92.9429 19.576 92.1989 19.144 91.5909 18.584C90.9829 19.144 90.2309 19.576 89.3349 19.88C88.4549 20.184 87.4549 20.336 86.3349 20.336C83.8869 20.336 81.9829 19.704 80.6229 18.44C79.2629 17.176 78.5829 15.368 78.5829 13.016V3.2H83.3349V12.872C83.3349 14.072 83.5749 14.96 84.0549 15.536C84.5509 16.112 85.2869 16.4 86.2629 16.4C87.2389 16.4 87.9669 16.112 88.4469 15.536C88.9429 14.96 89.1909 14.072 89.1909 12.872V3.2H93.9429V12.872C93.9429 14.072 94.1909 14.96 94.6869 15.536C95.1829 16.112 95.9269 16.4 96.9189 16.4C97.8949 16.4 98.6229 16.112 99.1029 15.536C99.5829 14.96 99.8229 14.072 99.8229 12.872V3.2H104.575ZM114.557 16.736C115.181 16.736 115.717 16.648 116.165 16.472C116.629 16.296 117.093 16.008 117.557 15.608L119.933 18.104C118.701 19.512 116.861 20.216 114.413 20.216C112.893 20.216 111.557 19.928 110.405 19.352C109.253 18.776 108.357 17.976 107.717 16.952C107.093 15.928 106.781 14.768 106.781 13.472C106.781 12.192 107.093 11.048 107.717 10.04C108.341 9.016 109.197 8.216 110.285 7.64C111.389 7.064 112.621 6.776 113.981 6.776C115.245 6.776 116.397 7.04 117.437 7.568C118.493 8.08 119.333 8.84 119.957 9.848C120.581 10.84 120.893 12.024 120.893 13.4L111.605 15.176C112.101 16.216 113.085 16.736 114.557 16.736ZM114.005 10.016C113.221 10.016 112.581 10.264 112.085 10.76C111.589 11.24 111.309 11.936 111.245 12.848L116.525 11.816C116.365 11.272 116.061 10.84 115.613 10.52C115.165 10.184 114.629 10.016 114.005 10.016ZM131.179 6.776C132.363 6.776 133.435 7.048 134.395 7.592C135.371 8.136 136.139 8.92 136.699 9.944C137.275 10.952 137.563 12.128 137.563 13.472C137.563 14.816 137.275 16 136.699 17.024C136.139 18.048 135.371 18.84 134.395 19.4C133.435 19.944 132.363 20.216 131.179 20.216C129.467 20.216 128.187 19.712 127.339 18.704V20H122.995V2.192H127.555V8.12C128.435 7.224 129.643 6.776 131.179 6.776ZM130.219 16.592C131.019 16.592 131.675 16.32 132.187 15.776C132.699 15.216 132.955 14.448 132.955 13.472C132.955 12.512 132.699 11.76 132.187 11.216C131.675 10.672 131.019 10.4 130.219 10.4C129.419 10.4 128.763 10.672 128.251 11.216C127.739 11.76 127.483 12.512 127.483 13.472C127.483 14.448 127.739 15.216 128.251 15.776C128.763 16.32 129.419 16.592 130.219 16.592Z" fill="#6B5AF9"/>
</svg>
