<svg width="12" height="11" viewBox="0 0 12 11" fill="none" xmlns="http://www.w3.org/2000/svg">
<path d="M11.2391 8.70911C11.022 9.32224 10.1602 9.83073 9.47287 9.97923C9.00262 10.0794 8.38837 10.1592 6.32062 9.30199C3.67575 8.20624 1.9725 5.51861 1.83975 5.34424C1.71262 5.16986 0.770996 3.92111 0.770996 2.62961C0.770996 1.33811 1.42687 0.709238 1.69125 0.439239C1.90837 0.217614 2.26725 0.116364 2.6115 0.116364C2.72287 0.116364 2.823 0.121989 2.913 0.126489C3.17737 0.137739 3.31012 0.153489 3.4845 0.570864C3.70162 1.09399 4.23037 2.38549 4.29337 2.51824C4.3575 2.65099 4.42162 2.83099 4.33162 3.00536C4.24725 3.18536 4.173 3.26524 4.04025 3.41824C3.9075 3.57124 3.7815 3.68824 3.64875 3.85249C3.52725 3.99536 3.39 4.14836 3.543 4.41274C3.696 4.67149 4.22475 5.53436 5.00325 6.22736C6.00787 7.12174 6.82237 7.40749 7.11375 7.52899C7.33087 7.61899 7.58962 7.59761 7.74825 7.42886C7.94962 7.21174 8.19825 6.85174 8.45137 6.49736C8.63137 6.24311 8.85862 6.21161 9.09712 6.30161C9.34012 6.38599 10.626 7.02161 10.8904 7.15323C11.1547 7.28598 11.3291 7.34899 11.3932 7.46036C11.4562 7.57174 11.4562 8.09486 11.2391 8.70911Z" fill="#FAFAFA"/>
</svg>
